<?xml version="1.0" encoding="UTF-8"?> <svg xmlns="http://www.w3.org/2000/svg" width="20" height="20" viewBox="0 0 20 20" fill="none"><path d="M18.2422 4.14062H1.75781C0.788555 4.14062 0 4.92918 0 5.89844V8.24219C0 8.56578 0.262344 8.82812 0.585938 8.82812H1.17188C1.81805 8.82812 2.34375 9.35383 2.34375 10C2.34375 10.6462 1.81805 11.1719 1.17188 11.1719H0.585938C0.262344 11.1719 0 11.4342 0 11.7578V14.1016C0 15.0708 0.788555 15.8594 1.75781 15.8594H18.2422C19.2114 15.8594 20 15.0708 20 14.1016V11.7578C20 11.4342 19.7377 11.1719 19.4141 11.1719H18.8281C18.182 11.1719 17.6562 10.6462 17.6562 10C17.6562 9.35383 18.182 8.82812 18.8281 8.82812H19.4141C19.7377 8.82812 20 8.56578 20 8.24219V5.89844C20 4.92918 19.2114 4.14062 18.2422 4.14062ZM18.8281 7.65625C17.5358 7.65625 16.4844 8.70766 16.4844 10C16.4844 11.2923 17.5358 12.3438 18.8281 12.3438V14.1016C18.8281 14.4246 18.5653 14.6875 18.2422 14.6875H1.75781C1.43473 14.6875 1.17188 14.4246 1.17188 14.1016V12.3438C2.46422 12.3438 3.51562 11.2923 3.51562 10C3.51562 8.70766 2.46422 7.65625 1.17188 7.65625V5.89844C1.17188 5.57535 1.43473 5.3125 1.75781 5.3125H18.2422C18.5653 5.3125 18.8281 5.57535 18.8281 5.89844V7.65625Z" fill="black"></path><path d="M12.3438 10C11.3745 10 10.5859 10.7886 10.5859 11.7578C10.5859 12.7271 11.3745 13.5156 12.3438 13.5156C13.313 13.5156 14.1016 12.7271 14.1016 11.7578C14.1016 10.7886 13.313 10 12.3438 10ZM12.3438 12.3438C12.0207 12.3438 11.7578 12.0809 11.7578 11.7578C11.7578 11.4347 12.0207 11.1719 12.3438 11.1719C12.6668 11.1719 12.9297 11.4347 12.9297 11.7578C12.9297 12.0809 12.6668 12.3438 12.3438 12.3438Z" fill="black"></path><path d="M9.41406 8.24219C9.41406 7.27293 8.62551 6.48438 7.65625 6.48438C6.68699 6.48438 5.89844 7.27293 5.89844 8.24219C5.89844 9.21145 6.68699 10 7.65625 10C8.62551 10 9.41406 9.21145 9.41406 8.24219ZM7.07031 8.24219C7.07031 7.9191 7.33316 7.65625 7.65625 7.65625C7.97934 7.65625 8.24219 7.9191 8.24219 8.24219C8.24219 8.56527 7.97934 8.82812 7.65625 8.82812C7.33316 8.82812 7.07031 8.56527 7.07031 8.24219Z" fill="black"></path><path d="M12.7098 6.61276C12.4571 6.41058 12.0884 6.45159 11.8862 6.70429L7.19874 12.5637C6.99659 12.8164 7.03757 13.1851 7.29023 13.3872C7.54183 13.5885 7.91077 13.5495 8.11378 13.2957L12.8013 7.43632C13.0034 7.18366 12.9625 6.81491 12.7098 6.61276Z" fill="black"></path></svg> 