<?xml version="1.0" encoding="UTF-8"?> <svg xmlns="http://www.w3.org/2000/svg" width="34" height="34" viewBox="0 0 34 34" fill="none"><path d="M31.0117 7.03906H2.98828C1.34054 7.03906 0 8.37961 0 10.0273V14.0117C0 14.5618 0.445984 15.0078 0.996094 15.0078H1.99219C3.09068 15.0078 3.98438 15.9015 3.98438 17C3.98438 18.0985 3.09068 18.9922 1.99219 18.9922H0.996094C0.445984 18.9922 0 19.4382 0 19.9883V23.9727C0 25.6204 1.34054 26.9609 2.98828 26.9609H31.0117C32.6595 26.9609 34 25.6204 34 23.9727V19.9883C34 19.4382 33.554 18.9922 33.0039 18.9922H32.0078C30.9093 18.9922 30.0156 18.0985 30.0156 17C30.0156 15.9015 30.9093 15.0078 32.0078 15.0078H33.0039C33.554 15.0078 34 14.5618 34 14.0117V10.0273C34 8.37961 32.6595 7.03906 31.0117 7.03906ZM32.0078 13.0156C29.8108 13.0156 28.0234 14.803 28.0234 17C28.0234 19.197 29.8108 20.9844 32.0078 20.9844V23.9727C32.0078 24.5219 31.561 24.9688 31.0117 24.9688H2.98828C2.43904 24.9688 1.99219 24.5219 1.99219 23.9727V20.9844C4.18917 20.9844 5.97656 19.197 5.97656 17C5.97656 14.803 4.18917 13.0156 1.99219 13.0156V10.0273C1.99219 9.4781 2.43904 9.03125 2.98828 9.03125H31.0117C31.561 9.03125 32.0078 9.4781 32.0078 10.0273V13.0156Z" fill="#8CBC67"></path><path d="M20.9844 17C19.3366 17 17.9961 18.3405 17.9961 19.9883C17.9961 21.636 19.3366 22.9766 20.9844 22.9766C22.6321 22.9766 23.9727 21.636 23.9727 19.9883C23.9727 18.3405 22.6321 17 20.9844 17ZM20.9844 20.9844C20.4351 20.9844 19.9883 20.5375 19.9883 19.9883C19.9883 19.439 20.4351 18.9922 20.9844 18.9922C21.5336 18.9922 21.9805 19.439 21.9805 19.9883C21.9805 20.5375 21.5336 20.9844 20.9844 20.9844Z" fill="#8CBC67"></path><path d="M16.0039 14.0117C16.0039 12.364 14.6634 11.0234 13.0156 11.0234C11.3679 11.0234 10.0273 12.364 10.0273 14.0117C10.0273 15.6595 11.3679 17 13.0156 17C14.6634 17 16.0039 15.6595 16.0039 14.0117ZM12.0195 14.0117C12.0195 13.4625 12.4664 13.0156 13.0156 13.0156C13.5649 13.0156 14.0117 13.4625 14.0117 14.0117C14.0117 14.561 13.5649 15.0078 13.0156 15.0078C12.4664 15.0078 12.0195 14.561 12.0195 14.0117Z" fill="#8CBC67"></path><path d="M21.6067 11.2417C21.177 10.898 20.5502 10.9677 20.2066 11.3973L12.2379 21.3582C11.8942 21.7878 11.9639 22.4146 12.3934 22.7583C12.8211 23.1004 13.4483 23.0342 13.7934 22.6027L21.7622 12.6417C22.1058 12.2122 22.0362 11.5854 21.6067 11.2417Z" fill="#8CBC67"></path></svg> 